<svg width="21" height="19" viewBox="0 0 21 19" fill="none" xmlns="http://www.w3.org/2000/svg">
<path d="M19.3968 6.93076L13.6939 6.10195L11.1446 0.933687C11.075 0.792184 10.9604 0.677633 10.8189 0.608004C10.464 0.432809 10.0328 0.578805 9.85534 0.933687L7.30603 6.10195L1.6032 6.93076C1.44597 6.95322 1.30222 7.02734 1.19216 7.13964C1.05911 7.2764 0.985787 7.46039 0.988314 7.65117C0.990841 7.84196 1.06901 8.02394 1.20564 8.15712L5.33171 12.1799L4.35691 17.8602C4.33405 17.9924 4.34867 18.1283 4.39912 18.2525C4.44956 18.3768 4.53381 18.4844 4.64232 18.5632C4.75082 18.642 4.87923 18.6889 5.01299 18.6984C5.14675 18.7079 5.28051 18.6798 5.39909 18.6172L10.5 15.9353L15.6009 18.6172C15.7401 18.6913 15.9018 18.716 16.0568 18.6891C16.4476 18.6217 16.7104 18.2511 16.643 17.8602L15.6682 12.1799L19.7943 8.15712C19.9066 8.04707 19.9807 7.90332 20.0032 7.74609C20.0638 7.35302 19.7898 6.98916 19.3968 6.93076Z" fill="#FDA202"/>
</svg>
